<svg width="1440" height="1024" viewBox="0 0 1440 1024" fill="none" xmlns="http://www.w3.org/2000/svg">
  <defs><linearGradient id="bg" x1="0" y1="0" x2="1440" y2="1024"><stop stop-color="#080A12"/><stop offset=".5" stop-color="#101827"/><stop offset="1" stop-color="#05070B"/></linearGradient><style>.title{font:800 50px Inter,Arial;fill:#F8FAFC}.h2{font:700 20px Inter,Arial;fill:#F8FAFC}.body{font:500 14px Inter,Arial;fill:#CBD5E1}.muted{font:500 13px Inter,Arial;fill:#64748B}.metric{font:800 36px Inter,Arial;fill:#F8FAFC}.tiny{font:700 11px Inter,Arial;fill:#94A3B8}.card{fill:#0E1422;stroke:#263347}</style></defs>
  <rect width="1440" height="1024" fill="url(#bg)"/>
  <text x="306" y="154" class="title">Invisible credits for every interview loop</text>
  <text x="448" y="204" class="body">1 rupee equals 1 credit. Credits only burn while Invisible Mode is active in a running interview.</text>
  <g>
    <rect x="84" y="300" width="294" height="440" rx="20" class="card"/><text x="124" y="358" class="h2">Starter</text><text x="124" y="426" class="metric">INR 300</text><text x="124" y="468" class="body">300 credits</text><text x="124" y="506" class="muted">60 active minutes</text><text x="124" y="560" class="body">Basic protection</text><text x="124" y="604" class="body">Companion support</text><rect x="124" y="658" width="214" height="48" rx="10" fill="#F8FAFC"/><text x="192" y="689" style="font:800 13px Inter,Arial;fill:#0F172A">Buy credits</text>
    <rect x="410" y="270" width="294" height="500" rx="20" fill="#101A2C" stroke="#38BDF8"/><text x="450" y="328" class="h2">Standard</text><text x="450" y="396" class="metric">INR 600</text><text x="450" y="438" class="body">600 credits</text><text x="450" y="476" class="muted">120 active minutes</text><text x="450" y="530" class="body">UPI checkout</text><text x="450" y="574" class="body">Usage analytics</text><text x="450" y="618" class="body">Low-credit alerts</text><rect x="450" y="688" width="214" height="48" rx="10" fill="#38BDF8"/><text x="518" y="719" style="font:800 13px Inter,Arial;fill:#06202A">Buy credits</text>
    <rect x="736" y="300" width="294" height="440" rx="20" class="card"/><text x="776" y="358" class="h2">Professional</text><text x="776" y="426" class="metric">INR 1200</text><text x="776" y="468" class="body">1200 credits</text><text x="776" y="506" class="muted">240 active minutes</text><text x="776" y="560" class="body">Advanced analytics</text><text x="776" y="604" class="body">Priority model routing</text><rect x="776" y="658" width="214" height="48" rx="10" fill="#F8FAFC"/><text x="844" y="689" style="font:800 13px Inter,Arial;fill:#0F172A">Buy credits</text>
    <rect x="1062" y="300" width="294" height="440" rx="20" class="card"/><text x="1102" y="358" class="h2">Enterprise</text><text x="1102" y="426" class="metric">INR 3000</text><text x="1102" y="468" class="body">3000 credits</text><text x="1102" y="506" class="muted">600 active minutes</text><text x="1102" y="560" class="body">Team reporting</text><text x="1102" y="604" class="body">Admin billing</text><rect x="1102" y="658" width="214" height="48" rx="10" fill="#F8FAFC"/><text x="1170" y="689" style="font:800 13px Inter,Arial;fill:#0F172A">Buy credits</text>
  </g>
  <rect x="288" y="822" width="864" height="92" rx="18" fill="#0B111D" stroke="#263347"/><text x="350" y="858" class="h2">No time expiry</text><text x="350" y="888" class="body">Credits remain in the wallet until consumed during active Invisible Mode usage.</text>
</svg>
