<svg width="1440" height="1024" viewBox="0 0 1440 1024" fill="none" xmlns="http://www.w3.org/2000/svg">
  <defs><linearGradient id="bg" x1="0" y1="0" x2="1440" y2="1024"><stop stop-color="#070A12"/><stop offset=".52" stop-color="#101827"/><stop offset="1" stop-color="#05070B"/></linearGradient><style>.title{font:800 40px Inter,Arial;fill:#F8FAFC}.h2{font:700 19px Inter,Arial;fill:#F8FAFC}.body{font:500 14px Inter,Arial;fill:#CBD5E1}.muted{font:500 13px Inter,Arial;fill:#64748B}.tiny{font:700 11px Inter,Arial;fill:#94A3B8}.card{fill:#0E1422;stroke:#263347}</style></defs>
  <rect width="1440" height="1024" fill="url(#bg)"/>
  <text x="72" y="92" class="title">Settings</text><text x="72" y="126" class="body">Profile, AI behavior, capture, billing, and subscriptions</text>
  <rect x="72" y="172" width="280" height="760" rx="18" class="card"/>
  <text x="104" y="228" class="body">Profile</text><text x="104" y="280" class="body">AI preferences</text><text x="104" y="332" class="body">Capture settings</text><text x="104" y="384" class="body">Billing</text><text x="104" y="436" class="body">Subscription</text>
  <rect x="96" y="258" width="232" height="44" rx="10" fill="#111827" stroke="#38BDF8"/>
  <rect x="384" y="172" width="984" height="188" rx="18" class="card"/>
  <circle cx="444" cy="242" r="34" fill="#7C3AED"/><text x="500" y="236" class="h2">Madhava Tatikonda</text><text x="500" y="268" class="body">madhava@example.com</text>
  <rect x="500" y="300" width="164" height="36" rx="8" fill="#F8FAFC"/><text x="542" y="323" style="font:800 12px Inter,Arial;fill:#0F172A">Edit profile</text>
  <rect x="384" y="392" width="474" height="252" rx="18" class="card"/>
  <text x="420" y="442" class="h2">AI preferences</text>
  <text x="420" y="496" class="body">Suggestion style</text><rect x="650" y="474" width="160" height="42" rx="10" fill="#111827" stroke="#334155"/><text x="700" y="501" class="body">Concise</text>
  <text x="420" y="558" class="body">Answer depth</text><rect x="650" y="536" width="160" height="42" rx="10" fill="#111827" stroke="#334155"/><text x="696" y="563" class="body">Senior</text>
  <rect x="894" y="392" width="474" height="252" rx="18" class="card"/>
  <text x="930" y="442" class="h2">Capture settings</text>
  <text x="930" y="496" class="body">Capture interval</text><rect x="1160" y="474" width="160" height="42" rx="10" fill="#111827" stroke="#334155"/><text x="1212" y="501" class="body">15 sec</text>
  <text x="930" y="558" class="body">Meeting validation</text><rect x="1218" y="540" width="68" height="34" rx="17" fill="#064E3B"/><circle cx="1268" cy="557" r="13" fill="#22C55E"/>
  <rect x="384" y="676" width="474" height="256" rx="18" class="card"/>
  <text x="420" y="726" class="h2">Billing</text><text x="420" y="782" class="body">Razorpay UPI purchases</text><text x="420" y="824" class="muted">Receipts, payment status, and wallet top-ups</text><rect x="420" y="866" width="168" height="40" rx="8" fill="#F8FAFC"/><text x="464" y="891" style="font:800 12px Inter,Arial;fill:#0F172A">Manage</text>
  <rect x="894" y="676" width="474" height="256" rx="18" class="card"/>
  <text x="930" y="726" class="h2">Subscription</text><text x="930" y="782" class="body">Invisible credits</text><text x="930" y="824" class="muted">900 remaining, 5 credits per active minute</text><rect x="930" y="866" width="168" height="40" rx="8" fill="#38BDF8"/><text x="978" y="891" style="font:800 12px Inter,Arial;fill:#06202A">Upgrade</text>
</svg>
